<svg xmlns="http://www.w3.org/2000/svg" xmlns:xlink="http://www.w3.org/1999/xlink" width="1080" zoomAndPan="magnify" viewBox="0 0 810 809.999993" height="1080" preserveAspectRatio="xMidYMid meet" version="1.0"><defs><clipPath id="15772cea3b"><path d="M 228 248.375 L 582 248.375 L 582 561.875 L 228 561.875 Z M 228 248.375 " clip-rule="nonzero"/></clipPath></defs><path fill="#f9e7cf" d="M 476.421875 65.71875 L 470.519531 65.988281 C 427.878906 65.699219 370.191406 77.277344 297.464844 100.730469 C 237.640625 122.074219 194.273438 143.757812 167.367188 165.78125 C 141.398438 186.808594 125.867188 201.519531 120.769531 209.917969 C 111.21875 222.070312 102.972656 235.15625 96.035156 249.167969 C 76.082031 292.304688 64.003906 338.882812 59.800781 388.90625 C 52.808594 452.523438 52.757812 512.035156 59.648438 567.453125 C 69.640625 617 81.902344 648.5 96.433594 661.953125 C 105.867188 679.023438 135.160156 695.523438 184.3125 711.453125 L 332.339844 746.152344 C 363.070312 751.511719 386.597656 753.570312 402.921875 752.328125 C 467.125 749.449219 539.65625 719.542969 620.523438 662.609375 L 729.230469 583.835938 C 752.78125 564.90625 766.113281 553.070312 769.226562 548.320312 C 787.046875 526.0625 796.269531 511.933594 796.890625 505.941406 C 801.3125 494.453125 803.785156 484.328125 804.308594 475.5625 C 807.859375 451.433594 798.179688 418.710938 775.273438 377.402344 C 732.984375 308.625 687.167969 243.5625 637.820312 182.21875 C 599.429688 133.238281 572.265625 103.816406 556.328125 93.957031 C 532.703125 75.847656 506.066406 66.433594 476.421875 65.71875 " fill-opacity="1" fill-rule="nonzero"/><path fill="#cfb48b" d="M 541.671875 69.46875 C 541.542969 69.339844 503.949219 32.472656 480.371094 23.140625 C 478.511719 22.40625 476.625 21.703125 474.71875 21.035156 C 433.449219 6.566406 381.78125 8.058594 345.105469 30.464844 C 319.308594 46.226562 304.992188 77.128906 292.484375 105.679688 C 286.679688 118.921875 281.324219 132.507812 275.941406 146.148438 C 270.550781 159.820312 265.132812 173.554688 259.238281 187.011719 C 248.746094 210.949219 236.707031 234.089844 220.46875 254.597656 C 196.570312 284.777344 163.070312 306.023438 130.085938 326.96875 C 97.21875 347.839844 64.875 368.402344 42.035156 397.25 C 38.113281 402.199219 34.480469 407.386719 31.171875 412.859375 C 5.316406 455.652344 18.773438 514.875 32.109375 564.414062 C 54.722656 648.40625 101.625 743.734375 181.035156 776.75 C 184.664062 778.261719 188.328125 779.65625 192.039062 780.957031 C 226.3125 792.972656 263.671875 796.429688 300.28125 798.777344 C 370.199219 803.257812 440.8125 799.769531 510.40625 791.1875 C 556.972656 785.445312 603.582031 777.671875 648.175781 763.5625 C 681.03125 753.171875 720.171875 735.085938 729.09375 703.324219 C 737.90625 671.953125 725.710938 637 713.847656 605.609375 C 705.71875 584.109375 696.261719 563.152344 686.761719 542.109375 C 678.785156 524.441406 670.777344 506.703125 663.574219 488.648438 C 642.667969 436.269531 631.769531 380.621094 620.933594 325.3125 C 617.113281 305.816406 613.308594 286.382812 609.066406 267.089844 L 609.0625 267.089844 C 599.464844 223.425781 589.410156 179.777344 574.664062 137.730469 C 566.265625 113.789062 541.328125 69.035156 541.296875 68.972656 L 541.671875 69.46875 M 544.726562 66.355469 C 544.875 66.503906 545.003906 66.667969 545.105469 66.851562 C 545.070312 66.789062 570.226562 111.914062 578.777344 136.285156 C 593.625 178.609375 603.722656 222.492188 613.324219 266.15625 C 617.578125 285.5 621.394531 304.988281 625.214844 324.476562 C 636.0625 379.851562 646.894531 435.09375 667.625 487.03125 C 674.789062 504.988281 682.753906 522.628906 690.738281 540.316406 C 700.230469 561.34375 709.742188 582.414062 717.925781 604.070312 C 729.691406 635.195312 742.554688 671.527344 733.292969 704.5 C 723.660156 738.796875 682.058594 757.417969 649.492188 767.722656 C 604.519531 781.945312 557.609375 789.757812 510.941406 795.515625 C 441.140625 804.121094 370.246094 807.628906 300.003906 803.128906 C 263.386719 800.78125 225.488281 797.300781 190.597656 785.070312 C 186.808594 783.746094 183.074219 782.320312 179.359375 780.777344 C 97.929688 746.921875 50.566406 649.742188 27.898438 565.546875 C 14.675781 516.429688 0.457031 455.257812 27.441406 410.605469 C 30.847656 404.964844 34.589844 399.625 38.613281 394.542969 C 61.992188 365.015625 95.011719 344.078125 127.75 323.289062 C 160.859375 302.265625 193.691406 281.390625 217.050781 251.890625 C 232.957031 231.800781 244.824219 209.042969 255.242188 185.261719 C 261.101562 171.890625 266.488281 158.234375 271.886719 144.546875 C 277.261719 130.917969 282.648438 117.261719 288.488281 103.929688 C 300.886719 75.632812 315.667969 43.339844 342.832031 26.742188 C 380.863281 3.507812 433.945312 2.121094 476.160156 16.917969 C 478.121094 17.605469 480.058594 18.328125 481.976562 19.085938 C 506.5625 28.820312 544.855469 66.484375 544.726562 66.355469 Z M 544.726562 66.355469 " fill-opacity="0.9608" fill-rule="nonzero"/><g clip-path="url(#15772cea3b)"><path fill="#d1b790" d="M 438.210938 248.347656 C 437.429688 248.347656 436.644531 248.507812 435.90625 248.832031 L 421.621094 255.121094 C 416.503906 257.371094 411.078125 258.511719 405.492188 258.511719 C 399.628906 258.511719 393.964844 257.261719 388.648438 254.796875 L 375.882812 248.878906 C 375.117188 248.523438 374.292969 248.347656 373.476562 248.347656 C 372.402344 248.347656 371.332031 248.652344 370.394531 249.25 C 368.75 250.300781 367.753906 252.117188 367.753906 254.070312 L 367.753906 270.203125 L 310.707031 298.023438 C 306.226562 299.507812 271.953125 311.710938 261.90625 340.1875 C 253.066406 365.238281 257.757812 391.652344 260.078125 401.515625 C 252.363281 407.742188 234.75 425.703125 233.121094 460.816406 C 231.054688 465.40625 224.875 481.707031 232.023438 498.925781 C 238.429688 514.351562 253.453125 525.84375 276.679688 533.074219 C 277.246094 533.253906 277.816406 533.335938 278.382812 533.335938 C 280.625 533.335938 282.734375 532.007812 283.648438 529.839844 C 291.230469 511.910156 294.082031 488.375 294.757812 481.84375 L 305.972656 467.351562 C 307.609375 470.078125 309.78125 473.261719 312.609375 476.660156 C 318.503906 483.738281 321.011719 493.136719 319.488281 502.441406 L 313.226562 540.710938 C 312.730469 543.738281 314.714844 546.617188 317.71875 547.238281 L 372.429688 558.523438 C 383.222656 560.75 394.285156 561.878906 405.304688 561.878906 C 416.117188 561.878906 426.976562 560.792969 437.574219 558.648438 L 493.949219 547.242188 C 496.960938 546.632812 498.957031 543.746094 498.460938 540.710938 L 492.199219 502.441406 C 490.675781 493.132812 493.183594 483.738281 499.078125 476.65625 C 501.90625 473.261719 504.078125 470.078125 505.714844 467.351562 L 516.636719 481.46875 C 516.496094 485.007812 516.386719 492.3125 517.328125 500.632812 C 519.144531 516.730469 523.871094 528.402344 531.378906 535.320312 C 532.449219 536.308594 533.835938 536.835938 535.253906 536.835938 C 535.78125 536.835938 536.3125 536.761719 536.835938 536.613281 C 554.503906 531.535156 567.121094 522.167969 574.328125 508.773438 C 585.257812 488.460938 579.851562 465.839844 578.585938 461.292969 C 577.09375 425.863281 559.359375 407.773438 551.605469 401.515625 C 553.925781 391.652344 558.621094 365.238281 549.777344 340.1875 C 539.730469 311.710938 505.460938 299.507812 500.980469 298.023438 L 443.929688 270.203125 L 443.929688 254.070312 C 443.929688 252.136719 442.953125 250.335938 441.335938 249.277344 C 440.390625 248.664062 439.304688 248.347656 438.210938 248.347656 Z M 438.210938 248.347656 " fill-opacity="1" fill-rule="nonzero"/></g><path fill="#f9e7cf" d="M 380.828125 264.765625 L 389.785156 276.4375 C 391.5 278.675781 392.824219 281.1875 393.699219 283.867188 L 404.808594 317.9375 C 404.933594 318.324219 405 318.730469 405 319.140625 C 405 322.933594 400.128906 324.476562 397.941406 321.378906 C 389.089844 308.851562 375.363281 285.683594 377.996094 265.503906 C 378.179688 264.113281 379.972656 263.648438 380.828125 264.765625 Z M 380.828125 264.765625 " fill-opacity="1" fill-rule="nonzero"/><path fill="#f9e7cf" d="M 327.746094 299.9375 L 364.109375 282.035156 C 367.964844 280.136719 372.578125 282.292969 373.597656 286.46875 C 374.9375 291.953125 377.285156 299.507812 381.257812 307.105469 C 383.285156 310.992188 379.980469 315.511719 375.671875 314.726562 L 328.617188 306.171875 C 325.476562 305.597656 324.882812 301.347656 327.746094 299.9375 Z M 327.746094 299.9375 " fill-opacity="1" fill-rule="nonzero"/><path fill="#f9e7cf" d="M 344.53125 317.691406 C 344.53125 317.691406 317.90625 304.375 299.183594 312.695312 C 280.460938 321.019531 258.410156 335.171875 269.644531 399.679688 C 269.644531 399.679688 299.183594 377.621094 303.34375 361.390625 C 307.503906 345.160156 325.394531 318.9375 344.53125 317.691406 Z M 344.53125 317.691406 " fill-opacity="1" fill-rule="nonzero"/><path fill="#f9e7cf" d="M 396.152344 333.535156 C 399.492188 335.503906 401.53125 339.089844 401.53125 342.964844 L 401.53125 376.382812 C 401.53125 382.609375 397.207031 387.824219 391.398438 389.1875 C 388.042969 389.972656 384.6875 390.773438 381.421875 391.871094 L 345.777344 403.839844 C 338.902344 403.839844 332.417969 400.628906 328.28125 395.136719 C 323.882812 389.289062 316.289062 382.34375 304.34375 380.554688 C 301.835938 380.179688 300.609375 377.308594 302.109375 375.261719 C 306.15625 369.746094 312.269531 360.496094 314.160156 352.648438 C 317.074219 340.582031 339.957031 319.773438 355.765625 318.523438 C 367.433594 317.601562 386.804688 328.015625 396.152344 333.535156 Z M 396.152344 333.535156 " fill-opacity="1" fill-rule="nonzero"/><path fill="#ff004f" d="M 301.457031 395.707031 L 301.457031 416.324219 C 301.457031 416.324219 292.097656 466.78125 266.875 485.925781 C 263.207031 488.710938 257.898438 486.425781 257.367188 481.851562 L 254.4375 456.71875 C 253.769531 450.964844 254.535156 445.136719 256.667969 439.75 L 270.890625 403.839844 C 270.890625 403.839844 286.699219 393.433594 293.359375 387.609375 C 297.832031 387.609375 301.457031 391.234375 301.457031 395.707031 Z M 301.457031 395.707031 " fill-opacity="1" fill-rule="nonzero"/><path fill="#ff8564" d="M 257.414062 419.785156 C 258.574219 418.867188 260.160156 420.230469 259.4375 421.523438 C 256.109375 427.507812 251.070312 437.898438 250.269531 447.164062 C 249.480469 456.300781 249.71875 469.207031 249.980469 477.105469 C 250.035156 478.78125 247.785156 479.375 247.007812 477.886719 L 243.140625 470.484375 C 241.492188 467.328125 240.6875 463.804688 240.835938 460.246094 C 241.238281 450.429688 243.808594 430.566406 257.414062 419.785156 Z M 257.414062 419.785156 " fill-opacity="1" fill-rule="nonzero"/><path fill="#ff8564" d="M 303.019531 434.761719 L 303.019531 441.042969 C 303.019531 443.753906 302.542969 446.4375 301.589844 448.972656 C 299.550781 454.40625 295.253906 463.847656 288.191406 470.160156 C 287.441406 470.828125 286.3125 469.972656 286.753906 469.070312 C 290.082031 462.265625 297.222656 447.082031 301.105469 434.46875 C 301.4375 433.394531 303.019531 433.636719 303.019531 434.761719 Z M 303.019531 434.761719 " fill-opacity="1" fill-rule="nonzero"/><path fill="#f9e7cf" d="M 401.53125 441.285156 L 401.53125 468.902344 C 401.53125 470.984375 399.839844 472.675781 397.757812 472.675781 L 373.007812 472.675781 C 370.570312 472.675781 368.320312 471.375 367.101562 469.265625 L 364.222656 464.285156 C 361.527344 459.625 362.636719 453.695312 366.832031 450.324219 C 373.28125 445.140625 383.921875 438.589844 397.417969 437.523438 C 399.628906 437.347656 401.53125 439.066406 401.53125 441.285156 Z M 401.53125 441.285156 " fill-opacity="1" fill-rule="nonzero"/><path fill="#f9e7cf" d="M 396.964844 527.613281 L 379.375 527.613281 C 374.914062 527.613281 371.296875 523.996094 371.296875 519.53125 L 371.296875 487.4375 C 371.296875 482.976562 374.914062 479.359375 379.375 479.359375 L 396.96875 479.359375 C 399.488281 479.359375 401.53125 481.402344 401.53125 483.921875 L 401.53125 523.046875 C 401.53125 525.566406 399.488281 527.613281 396.964844 527.613281 Z M 396.964844 527.613281 " fill-opacity="1" fill-rule="nonzero"/><path fill="#f9e7cf" d="M 335.453125 457.976562 L 346.835938 470.90625 C 351.628906 476.351562 354.273438 483.363281 354.273438 490.621094 L 354.273438 506.402344 C 354.273438 507.640625 352.820312 508.308594 351.878906 507.5 L 341.945312 498.941406 C 336.210938 494.003906 332.917969 486.8125 332.917969 479.25 L 332.917969 458.933594 C 332.917969 457.597656 334.570312 456.972656 335.453125 457.976562 Z M 335.453125 457.976562 " fill-opacity="1" fill-rule="nonzero"/><path fill="#f9e7cf" d="M 337.308594 502.652344 L 348.582031 513.097656 C 352.210938 516.464844 354.277344 521.191406 354.277344 526.140625 L 354.277344 537.953125 C 354.277344 540.324219 351.378906 541.472656 349.757812 539.746094 L 338.15625 527.414062 C 334.789062 523.839844 332.917969 519.113281 332.917969 514.203125 L 332.917969 504.570312 C 332.917969 502.289062 335.632812 501.101562 337.308594 502.652344 Z M 337.308594 502.652344 " fill-opacity="1" fill-rule="nonzero"/><path fill="#f9e7cf" d="M 430.855469 264.765625 L 421.898438 276.4375 C 420.183594 278.675781 418.859375 281.1875 417.984375 283.867188 L 406.875 317.9375 C 406.75 318.324219 406.683594 318.730469 406.683594 319.140625 C 406.683594 322.933594 411.554688 324.476562 413.742188 321.378906 C 422.597656 308.851562 436.324219 285.683594 433.6875 265.503906 C 433.507812 264.113281 431.710938 263.648438 430.855469 264.765625 Z M 430.855469 264.765625 " fill-opacity="1" fill-rule="nonzero"/><path fill="#f9e7cf" d="M 483.9375 299.9375 L 447.574219 282.035156 C 443.71875 280.136719 439.105469 282.292969 438.089844 286.46875 C 436.75 291.953125 434.398438 299.507812 430.429688 307.105469 C 428.402344 310.992188 431.703125 315.511719 436.015625 314.726562 L 483.070312 306.171875 C 486.210938 305.597656 486.804688 301.347656 483.9375 299.9375 Z M 483.9375 299.9375 " fill-opacity="1" fill-rule="nonzero"/><path fill="#f9e7cf" d="M 467.152344 317.691406 C 467.152344 317.691406 493.78125 304.375 512.503906 312.695312 C 531.226562 321.019531 553.277344 335.171875 542.042969 399.679688 C 542.042969 399.679688 512.503906 377.621094 508.34375 361.390625 C 504.179688 345.160156 486.292969 318.9375 467.152344 317.691406 Z M 467.152344 317.691406 " fill-opacity="1" fill-rule="nonzero"/><path fill="#f9e7cf" d="M 415.53125 333.535156 C 412.195312 335.503906 410.152344 339.089844 410.152344 342.964844 L 410.152344 376.382812 C 410.152344 382.609375 414.480469 387.824219 420.285156 389.1875 C 423.644531 389.972656 426.996094 390.773438 430.265625 391.871094 L 465.910156 403.839844 C 472.785156 403.839844 479.269531 400.628906 483.402344 395.136719 C 487.800781 389.289062 495.398438 382.34375 507.339844 380.554688 C 509.847656 380.179688 511.078125 377.308594 509.574219 375.261719 C 505.527344 369.746094 499.417969 360.496094 497.523438 352.648438 C 494.613281 340.582031 471.730469 319.773438 455.917969 318.523438 C 444.253906 317.601562 424.882812 328.015625 415.53125 333.535156 Z M 415.53125 333.535156 " fill-opacity="1" fill-rule="nonzero"/><path fill="#ff004f" d="M 510.230469 395.707031 L 510.230469 416.324219 C 510.230469 416.324219 519.589844 466.78125 544.8125 485.925781 C 548.480469 488.710938 553.785156 486.425781 554.320312 481.851562 L 557.246094 456.71875 C 557.917969 450.964844 557.152344 445.136719 555.019531 439.75 L 540.792969 403.839844 C 540.792969 403.839844 524.984375 393.433594 518.328125 387.609375 C 513.855469 387.609375 510.230469 391.234375 510.230469 395.707031 Z M 510.230469 395.707031 " fill-opacity="1" fill-rule="nonzero"/><path fill="#ff8564" d="M 554.269531 419.785156 C 553.109375 418.867188 551.527344 420.230469 552.246094 421.523438 C 555.574219 427.507812 560.613281 437.898438 561.414062 447.164062 C 562.207031 456.300781 561.96875 469.207031 561.703125 477.105469 C 561.648438 478.78125 563.902344 479.375 564.679688 477.886719 L 568.542969 470.484375 C 570.191406 467.328125 570.996094 463.804688 570.847656 460.246094 C 570.445312 450.429688 567.875 430.566406 554.269531 419.785156 Z M 554.269531 419.785156 " fill-opacity="1" fill-rule="nonzero"/><path fill="#ff8564" d="M 508.664062 434.761719 L 508.664062 441.042969 C 508.664062 443.753906 509.140625 446.4375 510.09375 448.972656 C 512.132812 454.40625 516.433594 463.847656 523.492188 470.160156 C 524.242188 470.828125 525.371094 469.972656 524.929688 469.070312 C 521.601562 462.265625 514.460938 447.082031 510.578125 434.46875 C 510.246094 433.394531 508.664062 433.636719 508.664062 434.761719 Z M 508.664062 434.761719 " fill-opacity="1" fill-rule="nonzero"/><path fill="#f9e7cf" d="M 410.152344 441.285156 L 410.152344 468.902344 C 410.152344 470.984375 411.84375 472.675781 413.929688 472.675781 L 438.675781 472.675781 C 441.113281 472.675781 443.363281 471.375 444.585938 469.265625 L 447.464844 464.285156 C 450.15625 459.625 449.050781 453.695312 444.851562 450.324219 C 438.40625 445.140625 427.765625 438.589844 414.265625 437.523438 C 412.054688 437.347656 410.152344 439.066406 410.152344 441.285156 Z M 410.152344 441.285156 " fill-opacity="1" fill-rule="nonzero"/><path fill="#f9e7cf" d="M 414.71875 527.613281 L 432.308594 527.613281 C 436.773438 527.613281 440.386719 523.996094 440.386719 519.53125 L 440.386719 487.4375 C 440.386719 482.976562 436.769531 479.359375 432.308594 479.359375 L 414.71875 479.359375 C 412.199219 479.359375 410.15625 481.402344 410.15625 483.921875 L 410.15625 523.046875 C 410.152344 525.566406 412.199219 527.613281 414.71875 527.613281 Z M 414.71875 527.613281 " fill-opacity="1" fill-rule="nonzero"/><path fill="#f9e7cf" d="M 476.230469 457.976562 L 464.851562 470.90625 C 460.054688 476.351562 457.410156 483.363281 457.410156 490.621094 L 457.410156 506.402344 C 457.410156 507.640625 458.867188 508.308594 459.804688 507.5 L 469.742188 498.941406 C 475.472656 494.003906 478.769531 486.8125 478.769531 479.25 L 478.769531 458.933594 C 478.769531 457.597656 477.113281 456.972656 476.230469 457.976562 Z M 476.230469 457.976562 " fill-opacity="1" fill-rule="nonzero"/><path fill="#f9e7cf" d="M 474.378906 502.652344 L 463.105469 513.097656 C 459.472656 516.464844 457.410156 521.191406 457.410156 526.140625 L 457.410156 537.953125 C 457.410156 540.324219 460.304688 541.472656 461.925781 539.746094 L 473.53125 527.414062 C 476.894531 523.839844 478.769531 519.113281 478.769531 514.203125 L 478.769531 504.570312 C 478.769531 502.289062 476.050781 501.101562 474.378906 502.652344 Z M 474.378906 502.652344 " fill-opacity="1" fill-rule="nonzero"/><path fill="#f9e7cf" d="M 401.699219 400.4375 L 401.699219 426.273438 C 401.699219 428.234375 400.265625 429.945312 398.222656 430.417969 L 383.285156 433.871094 C 375.582031 435.65625 363.304688 441.4375 363.304688 441.4375 C 359.03125 445.847656 337.484375 410.472656 354.386719 410.472656 L 397.117188 396.167969 C 399.648438 396.167969 401.699219 398.078125 401.699219 400.4375 Z M 401.699219 400.4375 " fill-opacity="1" fill-rule="nonzero"/><path fill="#f9e7cf" d="M 410.320312 400.4375 L 410.320312 426.273438 C 410.320312 428.234375 411.757812 429.945312 413.800781 430.417969 L 428.734375 433.871094 C 436.4375 435.65625 448.71875 441.4375 448.71875 441.4375 C 452.988281 445.847656 475.347656 410.472656 457.636719 410.472656 L 414.902344 396.167969 C 412.371094 396.167969 410.320312 398.078125 410.320312 400.4375 Z M 410.320312 400.4375 " fill-opacity="1" fill-rule="nonzero"/></svg>